<svg width="160" height="48" viewBox="0 0 160 48" fill="none" xmlns="http://www.w3.org/2000/svg">
<path fill-rule="evenodd" clip-rule="evenodd" d="M82.0596 0C90.6609 0.000168646 96.4169 6.338 96.417 15.8447C96.417 25.1577 90.3374 31.6904 81.6064 31.6904C77.5968 31.6904 73.7806 29.7501 71.9697 26.8398V41H156.5C158.433 41 160 42.567 160 44.5C160 46.433 158.433 48 156.5 48H3.5C1.56701 48 0 46.433 0 44.5C0 42.567 1.567 41 3.5 41H64.9209V0.776367H71.9697V4.85059C73.7806 1.94028 77.7911 0 82.0596 0ZM80.5713 6.27344C75.2684 6.27366 71.6466 10.1538 71.6465 15.8447C71.6465 21.5358 75.2683 25.4168 80.5713 25.417C85.7452 25.417 89.3672 21.4713 89.3672 15.8447C89.3671 10.2183 85.7451 6.27344 80.5713 6.27344Z" fill="#000011" fill-opacity="0.9" style="fill:#000011;fill:color(display-p3 0.0000 0.0000 0.0667);fill-opacity:0.9;"/>
<path fill-rule="evenodd" clip-rule="evenodd" d="M15.0039 0C19.0136 0 22.6354 1.81097 24.4463 4.85059V0.776367H31.4961V30.9141H24.4463V26.8398C22.6354 29.8792 18.4967 31.6903 14.8105 31.6904C5.10954 31.6904 0 24.705 0 15.8447C0.000109009 6.98469 5.62655 0.000161013 15.0039 0ZM15.8447 6.27344C10.3477 6.27356 7.04991 10.3477 7.0498 15.8447C7.0498 21.3419 10.3476 25.4169 15.8447 25.417C21.8594 25.417 24.7695 21.0186 24.7695 15.8447C24.7694 10.671 21.8593 6.27344 15.8447 6.27344Z" fill="#000011" fill-opacity="0.9" style="fill:#000011;fill:color(display-p3 0.0000 0.0000 0.0667);fill-opacity:0.9;"/>
<path d="M48.2334 0C56.1235 2.32634e-05 60.1328 4.01005 60.1328 9.37793H53.2129C53.2129 6.85567 51.273 5.36816 47.9746 5.36816C45.517 5.36817 43.6416 6.59713 43.6416 8.47266C43.6418 10.1539 44.6765 11.2534 46.2285 11.7061L53.4072 13.7754C57.4816 14.9395 60.3915 17.9791 60.3916 21.8594C60.3916 27.6153 56.1882 31.6904 48.4922 31.6904C40.7316 31.6904 35.6868 27.1631 35.6865 21.666H42.7363C42.7366 24.2527 45.2585 26.0634 48.8799 26.0635C51.5315 26.0635 53.2129 24.6401 53.2129 22.5059C53.2128 21.1479 52.6952 19.7896 50.9492 19.3369L43.1885 17.2031C38.7263 15.9743 36.6573 12.87 36.6572 8.86035C36.6572 3.94517 41.2487 0 48.2334 0Z" fill="#000011" fill-opacity="0.9" style="fill:#000011;fill:color(display-p3 0.0000 0.0000 0.0667);fill-opacity:0.9;"/>
<path fill-rule="evenodd" clip-rule="evenodd" d="M113.478 0C122.079 3.786e-05 127.899 5.82078 127.899 14.293C127.899 15.6509 127.835 16.3624 127.706 18.1729H105.328C105.522 22.9587 108.627 25.5459 113.736 25.5459C117.229 25.5459 119.298 24.4464 120.462 22.1182H127.576C126.671 27.7447 120.98 31.6904 113.736 31.6904C104.229 31.6904 98.3438 25.6104 98.3438 15.8447C98.3439 6.20853 104.294 0 113.478 0ZM113.348 5.56152C108.368 5.56171 105.393 8.53735 105.328 12.8057H120.979C120.915 8.14918 118.198 5.56152 113.348 5.56152Z" fill="#000011" fill-opacity="0.9" style="fill:#000011;fill:color(display-p3 0.0000 0.0000 0.0667);fill-opacity:0.9;"/>
<path d="M149.006 0C156.249 0.000131606 160 4.07482 160 11.9648V30.9141H152.95V15.1982C152.95 8.79558 151.269 6.01465 146.354 6.01465C141.762 6.01482 139.175 9.0544 139.175 14.3574V30.9141H132.126V0.776367H139.175V4.97949C141.05 1.7459 144.543 0 149.006 0Z" fill="#000011" fill-opacity="0.9" style="fill:#000011;fill:color(display-p3 0.0000 0.0000 0.0667);fill-opacity:0.9;"/>
</svg>
